<?xml version="1.0" encoding="UTF-8"?>
<svg width="45px" height="45px" viewBox="0 0 45 45" version="1.1" xmlns="http://www.w3.org/2000/svg" xmlns:xlink="http://www.w3.org/1999/xlink">
    <title>f_logo_RGB-Blue_1024</title>
    <defs>
        <polygon id="path-1" points="0 0 45 0 45 44.7266495 0 44.7266495"></polygon>
    </defs>
    <g id="119-3" stroke="none" stroke-width="1" fill="none" fill-rule="evenodd">
        <g id="SP/公式SNS/最大" transform="translate(-27.000000, -458.000000)">
            <g id="btn" transform="translate(22.000000, 454.000000)">
                <g id="f_logo_RGB-Blue_1024" transform="translate(5.000000, 4.000000)">
                    <g id="Group-3">
                        <mask id="mask-2" fill="white">
                            <use xlink:href="#path-1"></use>
                        </mask>
                        <g id="Clip-2"></g>
                        <path d="M45,22.4991211 C45,10.0722196 34.9258257,-0.00175788117 22.4986816,-0.00175788117 C10.0715374,-0.00175788117 -0.00263687325,10.0722196 -0.00263687325,22.4991211 C-0.00263687325,33.7299602 8.22577006,43.0386441 18.9828506,44.7266495 L18.9828506,29.0032814 L13.2696252,29.0032814 L13.2696252,22.4991211 L18.9828506,22.4991211 L18.9828506,17.5418962 C18.9828506,11.9026134 22.3421392,8.78764795 27.4819325,8.78764795 C29.9437614,8.78764795 32.5187999,9.22711825 32.5187999,9.22711825 L32.5187999,14.7644439 L29.6814364,14.7644439 C26.8862189,14.7644439 26.0145126,16.4989013 26.0145126,18.2783165 L26.0145126,22.4991211 L32.2551126,22.4991211 L31.2574956,29.0032814 L26.0145126,29.0032814 L26.0145126,44.7266495 C36.7715931,43.0386441 45,33.7299602 45,22.4991211" id="Fill-1" fill="#1877F2" mask="url(#mask-2)"></path>
                    </g>
                    <path d="M31.2574956,29.0032814 L32.2551126,22.4991211 L26.0145126,22.4991211 L26.0145126,18.2783165 C26.0145126,16.4989013 26.8862189,14.7644439 29.6814364,14.7644439 L32.5187999,14.7644439 L32.5187999,9.22711825 C32.5187999,9.22711825 29.9437614,8.78764795 27.4819325,8.78764795 C22.3421392,8.78764795 18.9828506,11.9026134 18.9828506,17.5418962 L18.9828506,22.4991211 L13.2696252,22.4991211 L13.2696252,29.0032814 L18.9828506,29.0032814 L18.9828506,44.7266495 C20.1284401,44.9063928 21.3025959,45 22.4986816,45 C23.6947673,45 24.868923,44.9063928 26.0145126,44.7266495 L26.0145126,29.0032814 L31.2574956,29.0032814" id="Fill-4" fill="#FFFFFF"></path>
                </g>
            </g>
        </g>
    </g>
</svg>